<svg width="100" height="100" viewBox="0 0 100 100" fill="none" xmlns="http://www.w3.org/2000/svg">
<circle cx="50" cy="50" r="47.5" stroke="#9C96B5" stroke-width="5"/>
<path d="M23.229 63V59.0897L33.2841 49.5931C34.0786 48.8731 34.6621 48.2276 35.0345 47.6566C35.4069 47.0855 35.6552 46.5641 35.7793 46.0924C35.9283 45.6207 36.0028 45.1862 36.0028 44.789C36.0028 43.7462 35.6428 42.9517 34.9228 42.4055C34.2276 41.8345 33.1972 41.549 31.8317 41.549C30.7393 41.549 29.7214 41.76 28.7779 42.1821C27.8593 42.6041 27.0772 43.2621 26.4317 44.1559L22.0372 41.3255C23.0303 39.8359 24.4207 38.6566 26.2083 37.7876C27.9959 36.9186 30.0566 36.4841 32.3903 36.4841C34.3269 36.4841 36.0152 36.8069 37.4552 37.4524C38.92 38.0731 40.0497 38.9545 40.8441 40.0966C41.6634 41.2386 42.0731 42.6041 42.0731 44.1931C42.0731 45.0372 41.9614 45.8814 41.7379 46.7255C41.5393 47.5448 41.1172 48.4138 40.4717 49.3324C39.851 50.251 38.9324 51.2814 37.7159 52.4234L29.3738 60.2814L28.2193 58.0841H42.9297V63H23.229ZM54.2825 63.4469C52.47 63.4469 50.67 63.211 48.8825 62.7393C47.1197 62.2428 45.6052 61.5476 44.339 60.6538L46.7225 56.0359C47.7156 56.7559 48.8576 57.3269 50.1487 57.749C51.4645 58.171 52.7928 58.3821 54.1335 58.3821C55.648 58.3821 56.8397 58.0841 57.7087 57.4883C58.5776 56.8924 59.0121 56.0607 59.0121 54.9931C59.0121 54.3228 58.8383 53.7269 58.4907 53.2055C58.1431 52.6841 57.5225 52.2869 56.6287 52.0138C55.7597 51.7407 54.5307 51.6041 52.9418 51.6041H46.2756L47.6162 36.931H63.5183V41.7724H49.7762L52.9045 39.0166L51.9735 49.4814L48.8452 46.7255H54.3569C56.939 46.7255 59.0121 47.0855 60.5762 47.8055C62.1652 48.5007 63.3197 49.4566 64.0397 50.6731C64.7597 51.8897 65.1197 53.2676 65.1197 54.8069C65.1197 56.3462 64.7349 57.7738 63.9652 59.0897C63.1956 60.3807 62.0038 61.4359 60.39 62.2552C58.8011 63.0497 56.7652 63.4469 54.2825 63.4469ZM74.8668 58.5683V41.3628H79.6709V58.5683H74.8668ZM68.424 52.2372V47.6938H86.1509V52.2372H68.424Z" fill="#9C97B5"/>
</svg>
