<svg width="88" height="23" viewBox="0 0 88 23" fill="none" xmlns="http://www.w3.org/2000/svg">
<g clip-path="url(#clip0_2042_342)">
<path fill-rule="evenodd" clip-rule="evenodd" d="M33.6236 0.511099L26.0254 20.657H30.1068L31.6693 16.4484H39.7323L41.3021 20.657H45.3543L37.7999 0.511099H33.6236ZM33.0687 12.7489L35.7215 5.66127L38.3646 12.7489H33.0663H33.0687ZM50.2267 15.4599L53.5245 6.50398H57.4185L52.2054 20.657H48.3454L43.0374 6.50398H46.9314L50.2267 15.4599ZM62.3177 6.50398H58.6135V20.657H62.3177V6.50398ZM60.4631 5.48333C61.955 5.48333 63.1646 4.2551 63.1646 2.7402C63.1646 1.2253 61.955 -0.00292969 60.4631 -0.00292969C58.9712 -0.00292969 57.7617 1.2253 57.7617 2.7402C57.7617 4.2551 58.9712 5.48333 60.4631 5.48333ZM69.6603 2.72785H65.9659V6.47926H63.7998V9.88964H65.9659V15.9023C65.9659 19.3127 67.8155 20.7806 70.4245 20.7806C71.3031 20.793 72.1768 20.62 72.9873 20.2715V16.7648C72.5443 16.9303 72.0771 17.0168 71.6073 17.0193C70.4756 17.0193 69.6579 16.572 69.6579 15.0398V9.8847H72.9873V6.50892H69.6628V2.7229L69.6603 2.72785ZM80.7753 6.24696C79.3467 6.24696 77.9497 6.67697 76.762 7.48261C75.5744 8.28825 74.6471 9.43245 74.0995 10.7744C73.5519 12.1138 73.4083 13.5892 73.6882 15.0126C73.9656 16.4361 74.6544 17.7434 75.6644 18.769C76.6744 19.7946 77.9619 20.4939 79.3637 20.7757C80.7656 21.0574 82.2185 20.9141 83.5376 20.358C84.8567 19.802 85.986 18.8629 86.7794 17.6544C87.5728 16.4484 87.9963 15.0299 87.9963 13.5793C87.9963 11.6344 87.2345 9.77102 85.8814 8.39698C84.5282 7.02295 82.6931 6.24943 80.7778 6.24943L80.7753 6.24696ZM80.7753 17.1626C80.0793 17.1626 79.4002 16.9551 78.821 16.5621C78.2418 16.1692 77.7915 15.6131 77.5238 14.9607C77.2561 14.3083 77.188 13.5892 77.3218 12.8972C77.4581 12.2052 77.7915 11.5676 78.2831 11.0684C78.7748 10.5692 79.4027 10.2282 80.0841 10.0898C80.7656 9.95142 81.4738 10.0231 82.1163 10.2925C82.7588 10.5618 83.3089 11.0215 83.6958 11.6072C84.0828 12.1954 84.2872 12.8848 84.2872 13.5916C84.2872 14.5357 83.9149 15.4426 83.2553 16.1099C82.5958 16.7771 81.705 17.1503 80.7729 17.1503V17.1651L80.7753 17.1626Z" fill="#A8A8A8"/>
<path d="M8.38724 22.5693C12.3247 21.9182 14.9969 18.1491 14.3556 14.1509C13.7143 10.1527 10.0025 7.43937 6.06503 8.09052C2.12752 8.74167 -0.544607 12.5107 0.0966561 16.5089C0.737919 20.5072 4.44974 23.2205 8.38724 22.5693Z" fill="#04E061"/>
<path fill-rule="evenodd" clip-rule="evenodd" d="M19.7505 21.7419C22.1599 21.7419 24.1142 19.7575 24.1142 17.3109C24.1142 14.8643 22.1599 12.8799 19.7505 12.8799C17.341 12.8799 15.3867 14.8643 15.3867 17.3109C15.3867 19.7575 17.341 21.7419 19.7505 21.7419Z" fill="#FF4053"/>
<path fill-rule="evenodd" clip-rule="evenodd" d="M8.60382 7.04779C10.0957 7.04779 11.3053 5.81956 11.3053 4.30465C11.3053 2.78975 10.0957 1.56152 8.60382 1.56152C7.11192 1.56152 5.90234 2.78975 5.90234 4.30465C5.90234 5.81956 7.11192 7.04779 8.60382 7.04779Z" fill="#965EEB"/>
<path d="M18.0543 11.9264C21.2977 11.9264 23.927 9.25662 23.927 5.96322C23.927 2.66982 21.2977 0 18.0543 0C14.8109 0 12.1816 2.66982 12.1816 5.96322C12.1816 9.25662 14.8109 11.9264 18.0543 11.9264Z" fill="#00AAFF"/>
</g>
<defs>
<clipPath id="clip0_2042_342">
<rect width="88" height="22.6667" fill="white"/>
</clipPath>
</defs>
</svg>
