<svg width="100" height="100" viewBox="0 0 100 100" fill="none" xmlns="http://www.w3.org/2000/svg">
<circle cx="50" cy="50" r="47.5" stroke="#9C96B5" stroke-width="5"/>
<g clip-path="url(#clip0_2068_310)">
<path d="M51.911 33.4201C53.3497 33.165 54.3137 31.7657 54.0641 30.2948C53.8146 28.8239 52.446 27.8383 51.0073 28.0935C49.5686 28.3486 48.6046 29.7478 48.8542 31.2187C49.1037 32.6896 50.4723 33.6752 51.911 33.4201Z" fill="#9C96B5"/>
<path d="M70.7054 52.2132H70.68V41.6457C70.68 41.2132 70.3369 40.8624 69.9139 40.8624H67.3996V35.439C67.3996 35.212 67.3032 34.996 67.1353 34.8468C66.9675 34.6982 66.7444 34.6309 66.5247 34.6637L62.1056 35.3134L63.038 26.0044C63.0588 25.7976 62.998 25.5914 62.8701 25.4301C62.7422 25.2689 62.5563 25.1669 62.3541 25.1456L41.9022 23.0041C41.7 22.9828 41.4977 23.045 41.3405 23.1758C41.1828 23.3071 41.0831 23.4966 41.0622 23.7034L39.5676 38.627L31.071 39.8763C30.4406 39.969 30 40.4897 30 41.1423V67.9582C30 69.0837 30.8958 69.9995 31.9966 69.9995H69.9144C70.3375 69.9995 70.6806 69.6487 70.6806 69.2162V58.6487H70.7059C71.4209 58.6487 72 58.0565 72 57.3256V53.5357C72 52.8048 71.4209 52.2127 70.7059 52.2127L70.7054 52.2132ZM65.8672 36.3427V40.8624H61.549L61.9439 36.9198L65.8672 36.3427ZM42.0002 29.7154C44.6143 29.6377 46.866 27.7634 47.47 25.1623L56.4737 26.1052C56.5497 28.7777 58.3829 31.0799 60.9271 31.6974L60.0088 40.8624H55.9525C55.5035 38.3805 53.5013 36.3916 50.9211 36.1215C47.9415 35.8099 45.2638 37.9018 44.7303 40.8624H40.8837L42.0002 29.7154ZM39.3434 40.8624H35.1306L39.4065 40.2334L39.3434 40.8624ZM69.1477 68.434H31.996C31.7397 68.434 31.5312 68.2209 31.5312 67.9588V42.4285H40.0335C40.0335 42.4285 40.0352 42.4285 40.0364 42.4285H60.7C60.7 42.4285 60.7006 42.4285 60.7011 42.4285C60.7011 42.4285 60.7017 42.4285 60.7023 42.4285H69.1471V52.2132H65.6689C63.9304 52.2132 62.5214 53.6538 62.5214 55.4312C62.5214 57.2087 63.9304 58.6492 65.6689 58.6492H69.1471V68.434H69.1477Z" fill="#9C96B5" stroke="#9C96B5" stroke-width="0.5"/>
</g>
<defs>
<clipPath id="clip0_2068_310">
<rect width="42" height="47" fill="white" transform="translate(30 23)"/>
</clipPath>
</defs>
</svg>
