<svg width="100" height="100" viewBox="0 0 100 100" fill="none" xmlns="http://www.w3.org/2000/svg">
<circle cx="50" cy="50" r="47.5" stroke="#9C96B5" stroke-width="5"/>
<path d="M26.9352 51.6621L15.2662 47.4662V46.2248L26.9352 42.0041V43.8166L17.9476 46.8455L26.9352 49.8497V51.6621ZM15.2662 54.1945V52.4317H26.9352V54.1945H15.2662ZM15.2662 58.1669V56.4041H26.9352V58.1669H15.2662ZM36.6245 57.2979C35.2011 57.2979 33.9266 56.9503 32.8011 56.2552C31.6756 55.5434 30.79 54.5172 30.1445 53.1766C29.499 51.8359 29.1762 50.2138 29.1762 48.3103C29.1762 46.4069 29.499 44.7848 30.1445 43.4441C30.79 42.1034 31.6756 41.0855 32.8011 40.3903C33.9266 39.6786 35.2011 39.3228 36.6245 39.3228C38.0645 39.3228 39.339 39.6786 40.448 40.3903C41.5735 41.0855 42.459 42.1034 43.1045 43.4441C43.75 44.7848 44.0728 46.4069 44.0728 48.3103C44.0728 50.2138 43.75 51.8359 43.1045 53.1766C42.459 54.5172 41.5735 55.5434 40.448 56.2552C39.339 56.9503 38.0645 57.2979 36.6245 57.2979ZM36.6245 53.8966C37.3031 53.8966 37.8907 53.7062 38.3873 53.3255C38.9004 52.9448 39.2976 52.3407 39.579 51.5131C39.8769 50.6855 40.0259 49.6179 40.0259 48.3103C40.0259 47.0028 39.8769 45.9352 39.579 45.1076C39.2976 44.28 38.9004 43.6759 38.3873 43.2952C37.8907 42.9145 37.3031 42.7241 36.6245 42.7241C35.9625 42.7241 35.3749 42.9145 34.8618 43.2952C34.3652 43.6759 33.968 44.28 33.67 45.1076C33.3887 45.9352 33.248 47.0028 33.248 48.3103C33.248 49.6179 33.3887 50.6855 33.67 51.5131C33.968 52.3407 34.3652 52.9448 34.8618 53.3255C35.3749 53.7062 35.9625 53.8966 36.6245 53.8966ZM45.8608 60.8234L47.4994 54.8648L48.0456 57.0993C47.3339 57.0993 46.7463 56.8924 46.2828 56.4786C45.8359 56.0648 45.6125 55.4938 45.6125 54.7655C45.6125 54.0372 45.8442 53.4579 46.3077 53.0276C46.7711 52.5972 47.3422 52.3821 48.0208 52.3821C48.7159 52.3821 49.287 52.6055 49.7339 53.0524C50.1808 53.4828 50.4042 54.0538 50.4042 54.7655C50.4042 54.9807 50.3877 55.1959 50.3546 55.411C50.3215 55.6097 50.2553 55.8579 50.1559 56.1559C50.0732 56.4372 49.9325 56.8014 49.7339 57.2483L48.3187 60.8234H45.8608ZM58.3172 39.3228C59.9228 39.3228 61.3048 39.6538 62.4634 40.3159C63.6221 40.9779 64.5159 41.9462 65.1448 43.2207C65.7738 44.4786 66.0883 46.051 66.0883 47.9379C66.0883 49.9407 65.7076 51.6372 64.9462 53.0276C64.2014 54.4179 63.1669 55.4772 61.8428 56.2055C60.5186 56.9338 58.9793 57.2979 57.2248 57.2979C56.3145 57.2979 55.4372 57.1986 54.5931 57C53.749 56.8014 53.0207 56.5034 52.4083 56.1062L53.8979 53.1517C54.3779 53.4828 54.891 53.7145 55.4372 53.8469C55.9834 53.9628 56.5545 54.0207 57.1503 54.0207C58.64 54.0207 59.8234 53.5655 60.7007 52.6552C61.5945 51.7448 62.0414 50.3959 62.0414 48.6083C62.0414 48.3103 62.0331 47.9793 62.0166 47.6152C62 47.251 61.9586 46.8869 61.8924 46.5228L62.9848 47.5655C62.7034 48.211 62.3062 48.7572 61.7931 49.2041C61.28 49.6345 60.6841 49.9655 60.0055 50.1972C59.3269 50.4124 58.5655 50.52 57.7214 50.52C56.6124 50.52 55.6028 50.2966 54.6924 49.8497C53.7986 49.4028 53.0786 48.7738 52.5324 47.9628C52.0028 47.1517 51.7379 46.2 51.7379 45.1076C51.7379 43.9159 52.0276 42.8897 52.6069 42.029C53.2028 41.1683 53.9972 40.5062 54.9903 40.0428C56 39.5628 57.109 39.3228 58.3172 39.3228ZM58.5655 42.3269C57.9862 42.3269 57.4814 42.4345 57.051 42.6497C56.6207 42.8483 56.2814 43.1462 56.0331 43.5434C55.7848 43.9241 55.6607 44.3793 55.6607 44.909C55.6607 45.7034 55.9255 46.3407 56.4552 46.8207C57.0014 47.2841 57.7214 47.5159 58.6152 47.5159C59.1945 47.5159 59.7076 47.4083 60.1545 47.1931C60.6179 46.9614 60.9738 46.6469 61.2221 46.2497C61.4703 45.8524 61.5945 45.4055 61.5945 44.909C61.5945 44.4124 61.4703 43.9738 61.2221 43.5931C60.9903 43.1959 60.651 42.8897 60.2041 42.6745C59.7572 42.4428 59.211 42.3269 58.5655 42.3269ZM73.9268 57.2979C72.7185 57.2979 71.5185 57.1407 70.3268 56.8262C69.1516 56.4952 68.142 56.0317 67.2978 55.4359L68.8868 52.3572C69.5489 52.8372 70.3103 53.2179 71.1709 53.4993C72.0482 53.7807 72.9337 53.9214 73.8275 53.9214C74.8372 53.9214 75.6316 53.7228 76.2109 53.3255C76.7903 52.9283 77.0799 52.3738 77.0799 51.6621C77.0799 51.2152 76.9641 50.8179 76.7323 50.4703C76.5006 50.1228 76.0868 49.8579 75.4909 49.6759C74.9116 49.4938 74.0923 49.4028 73.033 49.4028H68.5889L69.4827 39.6207H80.0841V42.8483H70.9227L73.0082 41.011L72.3875 47.9876L70.302 46.1503H73.9765C75.6978 46.1503 77.0799 46.3903 78.1227 46.8703C79.182 47.3338 79.9516 47.971 80.4316 48.7821C80.9116 49.5931 81.1516 50.5117 81.1516 51.5379C81.1516 52.5641 80.8951 53.5159 80.382 54.3931C79.8689 55.2538 79.0744 55.9572 77.9985 56.5034C76.9392 57.0331 75.582 57.2979 73.9268 57.2979Z" fill="#9C97B5"/>
</svg>
