<svg width="100" height="100" viewBox="0 0 100 100" fill="none" xmlns="http://www.w3.org/2000/svg">
<circle cx="50" cy="50" r="47.5" stroke="#9C96B5" stroke-width="5"/>
<g clip-path="url(#clip0_2068_307)">
<path d="M86.0322 11.2876C87.0217 10.7833 88.0878 10.9792 89.5586 11.5454L89.5596 11.5464C89.8029 11.6398 90.0418 11.7642 90.2695 11.9146L90.2705 11.9155L90.6846 12.187C92.7144 13.7664 93.4396 16.0293 92.7412 18.4536C92.4771 19.3675 91.8677 20.0636 91.0508 20.8979C89.0144 22.9788 86.7061 25.0779 84.7178 27.3589C81.5426 31.0009 78.3753 34.7051 75.4561 38.6011C72.4389 42.6289 69.7156 46.9213 66.9238 51.0317C66.5162 51.6321 66.1427 52.3246 65.7227 53.0249L65.6924 53.0767L65.668 53.1313C65.5617 53.3689 65.2723 53.8466 64.917 54.4165C64.5955 54.9323 64.2187 55.5253 64.0361 55.8774L64.0352 55.8794C61.8546 60.1015 59.6064 64.3326 57.4639 68.6011C57.032 69.462 56.6685 70.3462 56.3271 71.2065C55.9812 72.0785 55.662 72.9126 55.3018 73.7329V73.7339C54.5759 75.388 53.6713 76.829 52.3721 78.02C51.8426 78.5055 50.6143 78.9438 49.1777 78.9946C47.7466 79.0453 46.4898 78.6979 45.8262 78.0464H45.8252C44.8775 77.1155 44.0045 76.2124 43.3984 75.2065C40.394 70.2229 37.1816 65.3413 33.2979 60.9185C30.066 57.2387 26.5762 53.8234 22.6807 50.8286L21.8965 50.2349L21.6621 50.0522C21.125 49.6147 20.6453 49.0973 20.041 48.5073C18.6588 47.1544 18.7676 45.2457 19.6816 43.9976C21.4937 41.5249 23.697 39.5181 26.3916 38.1733L26.9375 37.9126C28.0006 37.4293 28.9671 37.3033 29.833 37.4585C30.6981 37.6137 31.5438 38.064 32.3428 38.8677V38.8687C34.5211 41.0582 36.6175 43.3408 38.5674 45.7261C41.235 48.9929 43.7195 52.3843 46.3223 55.77V55.771C46.3968 55.8681 46.4735 55.948 46.5283 56.0044C46.5894 56.0672 46.6386 56.1165 46.71 56.1929L47.5312 57.0708L48.2451 56.104C48.3867 55.9123 48.636 55.6059 48.8076 55.3345L48.8096 55.3306C51.5955 50.8821 54.2278 46.4274 57.1143 42.1147C61.3301 35.8149 65.9709 29.8466 71.1104 24.2935C74.507 20.6237 77.9516 17.0806 81.8018 14.0063H81.8027C82.9431 13.0952 84.1866 12.2775 85.4766 11.5796L86.0322 11.2876Z" fill="#9C96B5" stroke="white" stroke-width="2"/>
</g>
<defs>
<clipPath id="clip0_2068_307">
<rect width="76" height="70" fill="white" transform="translate(18 10)"/>
</clipPath>
</defs>
</svg>
